<?xml version="1.0" encoding="utf-8"?>
<!-- Generator: Adobe Illustrator 27.6.1, SVG Export Plug-In . SVG Version: 6.00 Build 0)  -->
<svg version="1.0" id="Layer_1" xmlns="http://www.w3.org/2000/svg" xmlns:xlink="http://www.w3.org/1999/xlink" x="0px" y="0px"
	 viewBox="0 0 404.56 142.72" style="enable-background:new 0 0 404.56 142.72;" xml:space="preserve">
<style type="text/css">
	.st0{fill:#FFFFFF;}
	.st1{fill:#ED2124;}
	.st2{fill:none;}
</style>
<g>
	<path class="st0" d="M192.96,53.54h-11.42v17.55h11.42c2.63,0,4.57-0.87,5.81-2.6c1.32-1.73,1.97-3.81,1.97-6.23
		c0-2.42-0.66-4.47-1.97-6.13C197.53,54.41,195.59,53.54,192.96,53.54 M181.54,109.93h-17.33V38.38h29.58
		c7.89,0,13.94,2.35,18.16,7.06c4.22,4.71,6.33,10.32,6.33,16.82c0,5.4-1.49,10.25-4.46,14.54c-2.9,4.22-7.13,7.03-12.66,8.41
		l17.43,24.72h-20.13L183.1,86.05h-1.56V109.93z"/>
	<path class="st0" d="M234.09,78.67c-1.94,1.94-2.91,4.29-2.91,7.06c0,2.77,0.97,5.16,2.91,7.17c2.01,1.94,4.39,2.91,7.16,2.91
		c2.77,0,5.12-0.97,7.06-2.91c2.01-2.01,3.01-4.4,3.01-7.17c0-2.77-1-5.12-3.01-7.06c-1.94-2.01-4.29-3.01-7.06-3.01
		C238.48,75.66,236.1,76.67,234.09,78.67 M251.32,66.73v-5.19h16.5v48.39h-16.5v-5.5c-3.04,4.29-7.51,6.44-13.39,6.44
		c-6.3,0-11.8-2.32-16.5-6.96c-4.71-4.64-7.06-10.73-7.06-18.28c0-7.55,2.35-13.64,7.06-18.28c4.7-4.71,10.2-7.06,16.5-7.06
		c2.56,0,5.05,0.55,7.47,1.66C247.89,63.06,249.87,64.65,251.32,66.73"/>
	<path class="st0" d="M304.41,92.9c2.01-2.01,3.01-4.4,3.01-7.17c0-2.77-1-5.12-3.01-7.06c-1.94-2.01-4.29-3.01-7.06-3.01
		c-2.77,0-5.15,1-7.16,3.01c-1.94,1.94-2.91,4.29-2.91,7.06c0,2.77,0.97,5.16,2.91,7.17c2.01,1.94,4.39,2.91,7.16,2.91
		C300.12,95.81,302.48,94.84,304.41,92.9 M287.29,36.09V66c3.46-3.81,7.92-5.71,13.39-5.71c6.3,0,11.8,2.35,16.5,7.06
		c4.7,4.64,7.06,10.73,7.06,18.28c0,7.55-2.35,13.64-7.06,18.28c-4.7,4.64-10.2,6.96-16.5,6.96c-2.97,0-5.78-0.66-8.41-1.97
		c-2.63-1.32-4.6-3.29-5.92-5.92v6.96h-15.57V36.09H287.29z"/>
	<path class="st0" d="M337.58,81.06h19.3c-0.69-2.7-2.01-4.57-3.94-5.61c-1.94-1.04-3.84-1.56-5.71-1.56
		c-1.11,0-2.25,0.14-3.42,0.42c-1.11,0.28-2.35,1-3.74,2.18C338.75,77.67,337.92,79.19,337.58,81.06 M372.55,85.01
		c0,0.83-0.1,2.6-0.31,5.3h-34.66c0.28,2.21,1.49,4.01,3.63,5.4c2.21,1.32,4.7,1.97,7.47,1.97c3.87,0,6.95-1.35,9.24-4.05
		c0.76,0.62,2.7,2.04,5.81,4.26c3.18,2.22,5.05,3.53,5.6,3.95c-4.57,6.02-11.87,9.04-21.9,9.04c-7.13,0-13.21-2.35-18.26-7.06
		c-4.98-4.78-7.47-10.9-7.47-18.38c0-7.41,2.49-13.43,7.47-18.07c5.05-4.71,11.14-7.06,18.26-7.06c7.13,0,13.08,2.29,17.85,6.85
		C370.13,71.65,372.55,77.6,372.55,85.01"/>
	<rect x="372.03" y="36.09" class="st0" width="16.5" height="73.84"/>
	<path class="st1" d="M74.37,14.65C42.06,14.71,16.02,40.8,16.02,73.11c0,23.38,13.72,43.55,33.55,52.9
		c0.26,0.12,0.57-0.07,0.57-0.36v-61.8c0-13.56,10.92-24.82,24.48-24.74c13.73,0.08,24.78,11.53,24.18,25.41
		c-0.55,12.8-11.15,23.09-23.96,23.28c-2.94,0.04-5.77-0.44-8.38-1.35c-0.36-0.13-0.67,0.27-0.46,0.59l27.25,40.51
		c0.3,0.45,0.88,0.64,1.39,0.46c22.36-8.21,38.3-29.69,38.3-54.89C132.94,40.79,106.71,14.59,74.37,14.65"/>
</g>
<rect x="677.44" y="-631.45" class="st2" width="841.89" height="595.28"/>
<path class="st1" d="M-826.78-447.24c-32.31,0.06-58.35,26.15-58.35,58.46c0,23.38,13.72,43.55,33.55,52.9
	c0.26,0.12,0.57-0.07,0.57-0.36v-61.8c0-13.56,10.92-24.82,24.48-24.74c13.73,0.08,24.78,11.53,24.18,25.41
	c-0.55,12.8-11.15,23.09-23.96,23.28c-2.94,0.04-5.77-0.44-8.38-1.35c-0.36-0.13-0.67,0.27-0.46,0.59l27.25,40.51
	c0.3,0.45,0.88,0.64,1.39,0.46c22.36-8.21,38.3-29.69,38.3-54.89C-768.21-421.1-794.44-447.3-826.78-447.24"/>
</svg>
